<svg xmlns="http://www.w3.org/2000/svg" xmlns:xlink="http://www.w3.org/1999/xlink" width="800" zoomAndPan="magnify" viewBox="0 0 600 599.999999" height="800" preserveAspectRatio="xMidYMid meet" version="1.0"><defs><clipPath id="2a8af41246"><path d="M 24.207031 24.207031 L 575.457031 24.207031 L 575.457031 575.457031 L 24.207031 575.457031 Z M 24.207031 24.207031 " clip-rule="nonzero"/></clipPath><clipPath id="6c610d574f"><path d="M 264 400 L 331 400 L 331 423 L 264 423 Z M 264 400 " clip-rule="nonzero"/></clipPath><clipPath id="688e422c65"><path d="M 280.277344 387.832031 L 333.058594 414.75 L 316.703125 446.820312 L 263.921875 419.902344 Z M 280.277344 387.832031 " clip-rule="nonzero"/></clipPath><clipPath id="9b8d435d74"><path d="M 280.277344 387.832031 L 333.058594 414.75 L 316.703125 446.820312 L 263.921875 419.902344 Z M 280.277344 387.832031 " clip-rule="nonzero"/></clipPath></defs><path fill="#f2c94c" d="M 246.371094 139.433594 L 350.960938 139.433594 C 356.71875 139.433594 361.386719 134.777344 361.386719 129.027344 C 361.386719 123.253906 356.71875 118.59375 350.960938 118.59375 L 246.371094 118.59375 C 240.617188 118.59375 235.945312 123.253906 235.945312 129.027344 C 235.945312 134.777344 240.617188 139.433594 246.371094 139.433594 " fill-opacity="1" fill-rule="nonzero"/><path fill="#f2c94c" d="M 215.597656 340.675781 C 195.40625 340.675781 179.03125 357.042969 179.03125 377.238281 C 179.03125 397.421875 195.40625 413.808594 215.597656 413.808594 C 235.804688 413.808594 252.171875 397.421875 252.171875 377.238281 C 252.171875 357.042969 235.804688 340.675781 215.597656 340.675781 " fill-opacity="1" fill-rule="nonzero"/><path fill="#f2c94c" d="M 381.734375 340.675781 C 361.527344 340.675781 345.167969 357.042969 345.167969 377.238281 C 345.167969 397.421875 361.527344 413.808594 381.734375 413.808594 C 401.925781 413.808594 418.304688 397.421875 418.304688 377.238281 C 418.304688 357.042969 401.925781 340.675781 381.734375 340.675781 " fill-opacity="1" fill-rule="nonzero"/><g clip-path="url(#2a8af41246)"><path fill="#f2c94c" d="M 425.738281 444.457031 L 425.738281 467.277344 C 425.738281 484.953125 411.414062 499.285156 393.746094 499.285156 L 392.859375 499.285156 C 375.191406 499.285156 360.867188 484.953125 360.867188 467.277344 L 360.867188 444.457031 L 236.464844 444.457031 L 236.464844 467.277344 C 236.464844 484.953125 222.148438 499.285156 204.488281 499.285156 L 203.585938 499.285156 C 185.925781 499.285156 171.601562 484.953125 171.601562 467.277344 L 171.601562 444.457031 L 135.164062 444.457031 L 143.160156 132.523438 C 143.160156 114.875 157.488281 100.550781 175.148438 100.550781 L 422.175781 100.550781 C 439.851562 100.550781 454.175781 114.875 454.175781 132.523438 L 462.167969 444.457031 Z M 299.90625 24.28125 C 147.6875 24.28125 24.277344 147.679688 24.277344 299.914062 C 24.277344 452.140625 147.6875 575.542969 299.90625 575.542969 C 452.140625 575.542969 575.542969 452.140625 575.542969 299.914062 C 575.542969 147.679688 452.140625 24.28125 299.90625 24.28125 " fill-opacity="1" fill-rule="nonzero"/></g><path fill="#f2c94c" d="M 392.203125 167.019531 L 205.136719 167.019531 C 191.75 167.019531 180.90625 177.867188 180.90625 191.242188 L 178.296875 320.546875 L 419.039062 320.546875 L 416.425781 191.242188 C 416.425781 177.867188 405.582031 167.019531 392.203125 167.019531 " fill-opacity="1" fill-rule="nonzero"/><g clip-path="url(#6c610d574f)"><g clip-path="url(#688e422c65)"><g clip-path="url(#9b8d435d74)"><path fill="#f2c94c" d="M 281.425781 411.6875 C 281.804688 411.460938 282.246094 411.214844 282.625 410.988281 C 283.105469 410.765625 283.632812 410.558594 284.117188 410.335938 L 284.222656 410.335938 C 284.808594 410.113281 285.417969 409.847656 286.132812 409.582031 C 286.722656 409.359375 287.4375 409.09375 288.109375 408.910156 C 288.738281 408.707031 289.390625 408.570312 289.976562 408.449219 L 290.691406 408.289062 C 290.984375 408.230469 291.34375 408.148438 291.71875 408.132812 C 292.054688 408.09375 292.496094 408.054688 292.9375 408.019531 C 293.144531 408.019531 293.3125 408.003906 293.523438 408.003906 C 293.734375 408.007812 293.941406 408.007812 294.171875 407.96875 C 294.613281 407.929688 295.035156 407.9375 295.410156 407.917969 C 296.230469 407.96875 297.085938 408.039062 297.882812 408.132812 C 298.472656 408.222656 299.058594 408.308594 299.582031 408.421875 C 299.957031 408.507812 300.292969 408.574219 300.691406 408.621094 C 300.878906 408.664062 301.027344 408.683594 301.234375 408.6875 C 301.527344 408.730469 301.824219 408.777344 302.117188 408.820312 C 302.492188 408.910156 302.871094 408.996094 303.203125 409.0625 L 303.496094 409.109375 L 303.792969 409.152344 C 304.167969 409.238281 304.546875 409.328125 304.964844 409.4375 C 305.296875 409.5 305.65625 409.628906 305.96875 409.738281 L 306.011719 409.757812 C 306.40625 409.910156 306.910156 410.0625 307.347656 410.234375 C 307.515625 410.316406 307.746094 410.382812 307.914062 410.46875 C 308.125 410.574219 308.394531 410.660156 308.605469 410.769531 C 309.441406 411.089844 310.339844 411.496094 311.34375 412.007812 L 311.511719 412.09375 C 312.265625 412.476562 313.058594 412.882812 313.875 413.351562 C 314.125 413.476562 314.355469 413.648438 314.605469 413.777344 C 314.773438 413.859375 314.875 413.964844 315.042969 414.050781 L 315.210938 414.136719 C 315.503906 414.285156 315.734375 414.457031 316.027344 414.605469 C 316.253906 414.773438 316.527344 414.964844 316.757812 415.136719 C 316.902344 415.261719 317.109375 415.367188 317.257812 415.496094 C 317.445312 415.644531 317.652344 415.75 317.800781 415.878906 C 318.03125 416.046875 318.28125 416.175781 318.511719 416.34375 C 318.867188 416.578125 319.199219 416.851562 319.535156 417.128906 L 319.824219 417.382812 L 320.011719 417.53125 C 320.390625 417.828125 320.804688 418.144531 321.203125 418.503906 C 321.578125 418.800781 321.933594 419.136719 322.371094 419.519531 C 322.664062 419.773438 322.890625 420.046875 323.140625 420.277344 C 323.246094 420.382812 323.351562 420.488281 323.453125 420.59375 C 323.789062 420.976562 324.183594 421.335938 324.539062 421.671875 C 324.746094 421.882812 325.019531 422.074219 325.226562 422.285156 L 325.375 422.414062 C 325.4375 422.496094 325.519531 422.539062 325.601562 422.582031 C 326.0625 422.816406 326.691406 422.71875 327.070312 422.386719 C 327.199219 422.347656 327.34375 422.265625 327.449219 422.160156 C 327.828125 421.832031 328.230469 421.457031 328.652344 421.042969 C 328.84375 420.878906 329.03125 420.714844 329.160156 420.570312 L 329.328125 420.445312 C 329.496094 420.320312 329.621094 420.175781 329.75 420.03125 C 329.875 419.886719 330.042969 419.761719 330.234375 419.597656 C 330.589844 419.308594 330.699219 418.785156 330.535156 418.285156 L 330.492188 418.054688 C 330.453125 417.824219 330.328125 417.652344 330.160156 417.464844 L 330.078125 417.316406 C 329.914062 417.128906 329.765625 416.894531 329.601562 416.707031 C 329.433594 416.515625 329.226562 416.304688 329.101562 416.136719 C 328.953125 416.011719 328.789062 415.820312 328.664062 415.652344 L 328.453125 415.441406 C 328.289062 415.25 328.101562 415.101562 327.953125 414.976562 C 327.890625 414.890625 327.808594 414.847656 327.746094 414.765625 C 327.496094 414.53125 327.246094 414.300781 326.996094 414.066406 C 326.683594 413.75 326.328125 413.414062 325.992188 413.136719 C 325.703125 412.882812 325.410156 412.628906 325.117188 412.375 C 324.742188 412.078125 324.386719 411.742188 324.03125 411.402344 C 323.367188 410.75 322.570312 410.238281 321.839844 409.710938 L 321.613281 409.539062 C 321.425781 409.390625 321.171875 409.261719 320.984375 409.117188 C 320.484375 408.753906 319.941406 408.375 319.378906 408.03125 L 319.25 407.96875 C 318.605469 407.585938 317.933594 407.140625 317.265625 406.800781 C 317.058594 406.691406 316.804688 406.566406 316.597656 406.457031 C 316.179688 406.246094 315.71875 406.011719 315.324219 405.753906 L 315.070312 405.628906 C 314.820312 405.5 314.589844 405.332031 314.339844 405.203125 C 314.296875 405.179688 314.296875 405.179688 314.257812 405.160156 C 313.921875 404.988281 313.546875 404.796875 313.105469 404.625 C 312.375 404.304688 311.664062 404.046875 310.929688 403.726562 L 310.617188 403.617188 C 310.050781 403.382812 309.570312 403.191406 309.070312 403.039062 C 308.691406 402.949219 308.335938 402.820312 307.917969 402.714844 L 307.601562 402.710938 C 307.375 402.644531 307.183594 402.601562 306.953125 402.535156 C 306.222656 402.320312 305.425781 402.125 304.671875 401.949219 C 303.855469 401.792969 303.039062 401.640625 302.222656 401.484375 C 302.074219 401.464844 301.96875 401.460938 301.824219 401.441406 C 299.875 401.128906 298.324219 400.964844 296.855469 400.949219 C 295.933594 400.898438 295.074219 400.933594 294.257812 400.988281 C 294.046875 400.984375 293.816406 401.023438 293.605469 401.023438 C 293.398438 401.019531 293.230469 401.039062 293.019531 401.039062 C 292.578125 401.074219 292.179688 401.132812 291.800781 401.152344 L 291.632812 401.171875 L 291.800781 401.152344 C 291.195312 401.207031 290.605469 401.328125 290.039062 401.40625 C 289.746094 401.464844 289.453125 401.523438 289.179688 401.542969 C 288.320312 401.679688 287.4375 401.859375 286.472656 402.101562 C 285.632812 402.300781 284.789062 402.605469 283.824219 402.953125 C 283.195312 403.15625 282.394531 403.480469 281.554688 403.789062 C 280.902344 404.03125 280.210938 404.359375 279.367188 404.769531 C 278.882812 404.992188 278.441406 405.238281 278 405.488281 L 277.558594 405.835938 L 277.410156 405.917969 C 277.136719 406.042969 276.886719 406.226562 276.613281 406.351562 C 276.316406 406.515625 276.042969 406.742188 275.75 406.90625 L 275.644531 407.011719 L 275.410156 407.152344 C 275.097656 407.359375 274.757812 407.605469 274.421875 407.855469 C 274.359375 407.875 274.339844 407.917969 274.253906 407.980469 C 274.085938 408.101562 273.9375 408.183594 273.8125 408.328125 L 273.789062 408.371094 C 273.601562 408.535156 273.367188 408.679688 273.136719 408.824219 C 272.652344 409.152344 272.230469 409.464844 271.769531 409.855469 C 271.472656 410.125 271.21875 410.414062 270.945312 410.640625 C 270.714844 410.890625 270.503906 411.097656 270.230469 411.324219 C 269.851562 411.65625 269.53125 412.070312 269.195312 412.421875 L 269.070312 412.566406 C 268.921875 412.753906 268.753906 412.878906 268.605469 413.0625 C 268.289062 413.375 267.992188 413.75 267.695312 414.121094 C 267.632812 414.246094 267.546875 414.308594 267.484375 414.433594 C 267.441406 414.515625 267.359375 414.578125 267.316406 414.660156 L 267.230469 414.722656 C 267.125 414.828125 267.0625 414.953125 266.976562 415.011719 C 266.578125 415.488281 266.195312 416.03125 265.816406 416.570312 C 265.648438 416.796875 265.519531 417.046875 265.390625 417.296875 C 265.351562 417.378906 265.308594 417.464844 265.265625 417.546875 L 265.222656 417.628906 C 265.203125 417.671875 265.179688 417.710938 265.136719 417.796875 C 265.011719 418.046875 264.945312 418.273438 264.902344 418.566406 C 264.882812 418.714844 264.902344 418.878906 264.984375 419.027344 C 265.003906 419.089844 264.984375 419.132812 265.023438 419.152344 C 265.066406 419.277344 265.128906 419.363281 265.167969 419.488281 C 265.273438 419.699219 265.417969 419.828125 265.628906 419.933594 C 265.710938 419.976562 265.773438 420.058594 265.835938 420.144531 C 265.941406 420.25 266.003906 420.332031 266.128906 420.398438 C 266.359375 420.566406 266.566406 420.777344 266.796875 420.949219 L 266.941406 421.074219 C 267.046875 421.179688 267.191406 421.308594 267.320312 421.371094 C 267.402344 421.414062 267.421875 421.476562 267.507812 421.519531 L 267.671875 421.605469 L 267.757812 421.648438 C 267.800781 421.667969 267.863281 421.753906 267.902344 421.773438 C 268.089844 421.921875 268.214844 422.089844 268.425781 422.199219 C 268.757812 422.367188 269.09375 422.433594 269.410156 422.332031 C 269.660156 422.25 269.871094 422.148438 270.042969 421.921875 C 270.125 421.859375 270.210938 421.796875 270.253906 421.714844 C 270.441406 421.445312 270.613281 421.214844 270.800781 420.945312 C 270.867188 420.820312 270.972656 420.71875 271.054688 420.550781 C 271.351562 420.179688 271.648438 419.804688 272.027344 419.371094 C 272.363281 419.019531 272.683594 418.601562 273.167969 418.0625 C 273.546875 417.628906 273.96875 417.214844 274.371094 416.84375 C 274.476562 416.738281 274.558594 416.675781 274.664062 416.574219 L 275.128906 416.183594 C 275.59375 415.789062 276.054688 415.398438 276.539062 414.960938 C 276.835938 414.695312 277.171875 414.445312 277.507812 414.199219 C 277.847656 413.953125 278.226562 413.726562 278.5625 413.476562 L 278.710938 413.394531 C 279.339844 412.984375 280.054688 412.511719 280.730469 412.121094 C 280.875 412.039062 281.128906 411.851562 281.425781 411.6875 Z M 281.425781 411.6875 " fill-opacity="1" fill-rule="nonzero"/></g></g></g></svg>