<svg xmlns="http://www.w3.org/2000/svg" xmlns:xlink="http://www.w3.org/1999/xlink" width="566" zoomAndPan="magnify" viewBox="0 0 425.25 155.999997" height="207" preserveAspectRatio="xMidYMid meet" version="1.0"><defs><g/><clipPath id="8923d182af"><path d="M 0 0.136719 L 424.5 0.136719 L 424.5 155.863281 L 0 155.863281 Z M 0 0.136719 " clip-rule="nonzero"/></clipPath><clipPath id="579acb58f5"><path d="M 270.917969 17.347656 L 390.246094 17.347656 L 390.246094 136.675781 L 270.917969 136.675781 Z M 270.917969 17.347656 " clip-rule="nonzero"/></clipPath></defs><g clip-path="url(#8923d182af)"><path fill="#ffffff" d="M 0 0.136719 L 425.25 0.136719 L 425.25 163.347656 L 0 163.347656 Z M 0 0.136719 " fill-opacity="1" fill-rule="nonzero"/><path fill="#ffffff" d="M 0 0.136719 L 424.5 0.136719 L 424.5 155.863281 L 0 155.863281 Z M 0 0.136719 " fill-opacity="1" fill-rule="nonzero"/><path fill="#ffffff" d="M 0 0.136719 L 424.5 0.136719 L 424.5 155.863281 L 0 155.863281 Z M 0 0.136719 " fill-opacity="1" fill-rule="nonzero"/></g><path fill="#ffde59" d="M 319.007812 42.289062 L 341.652344 42.289062 C 342.898438 42.289062 343.90625 41.28125 343.90625 40.035156 C 343.90625 38.789062 342.898438 37.777344 341.652344 37.777344 L 319.007812 37.777344 C 317.765625 37.777344 316.753906 38.789062 316.753906 40.035156 C 316.753906 41.28125 317.765625 42.289062 319.007812 42.289062 " fill-opacity="1" fill-rule="nonzero"/><path fill="#ffde59" d="M 312.347656 85.851562 C 307.976562 85.851562 304.433594 89.398438 304.433594 93.765625 C 304.433594 98.136719 307.976562 101.683594 312.347656 101.683594 C 316.722656 101.683594 320.265625 98.136719 320.265625 93.765625 C 320.265625 89.398438 316.722656 85.851562 312.347656 85.851562 " fill-opacity="1" fill-rule="nonzero"/><path fill="#ffde59" d="M 348.3125 85.851562 C 343.9375 85.851562 340.394531 89.398438 340.394531 93.765625 C 340.394531 98.136719 343.9375 101.683594 348.3125 101.683594 C 352.683594 101.683594 356.230469 98.136719 356.230469 93.765625 C 356.230469 89.398438 352.683594 85.851562 348.3125 85.851562 " fill-opacity="1" fill-rule="nonzero"/><g clip-path="url(#579acb58f5)"><path fill="#ffde59" d="M 357.835938 108.320312 L 357.835938 113.257812 C 357.835938 117.085938 354.738281 120.1875 350.910156 120.1875 L 350.71875 120.1875 C 346.894531 120.1875 343.792969 117.085938 343.792969 113.257812 L 343.792969 108.320312 L 316.863281 108.320312 L 316.863281 113.257812 C 316.863281 117.085938 313.765625 120.1875 309.941406 120.1875 L 309.746094 120.1875 C 305.925781 120.1875 302.824219 117.085938 302.824219 113.257812 L 302.824219 108.320312 L 294.9375 108.320312 L 296.667969 40.792969 C 296.667969 36.972656 299.769531 33.875 303.59375 33.875 L 357.066406 33.875 C 360.890625 33.875 363.992188 36.972656 363.992188 40.792969 L 365.722656 108.320312 Z M 330.597656 17.363281 C 297.648438 17.363281 270.933594 44.074219 270.933594 77.027344 C 270.933594 109.980469 297.648438 136.695312 330.597656 136.695312 C 363.550781 136.695312 390.265625 109.980469 390.265625 77.027344 C 390.265625 44.074219 363.550781 17.363281 330.597656 17.363281 " fill-opacity="1" fill-rule="nonzero"/></g><path fill="#ffde59" d="M 350.578125 48.261719 L 310.082031 48.261719 C 307.1875 48.261719 304.839844 50.609375 304.839844 53.503906 L 304.273438 81.496094 L 356.386719 81.496094 L 355.820312 53.503906 C 355.820312 50.609375 353.472656 48.261719 350.578125 48.261719 " fill-opacity="1" fill-rule="nonzero"/><g fill="#ffde59" fill-opacity="1"><g transform="translate(34.626901, 69.862556)"><g><path d="M 55.75 0 L 39.46875 0 L 26.40625 -18.828125 L 13.34375 0 L -2.28125 0 L 18.625 -29.75 L 1.203125 -55.28125 L 16.21875 -55.28125 L 26.40625 -40.203125 L 36.59375 -55.28125 L 52.265625 -55.28125 L 34.171875 -29.75 Z M 55.75 0 "/></g></g></g><g fill="#ffde59" fill-opacity="1"><g transform="translate(86.70017, 69.862556)"><g><path d="M 16.625 -55.28125 L 16.625 0 L 4.015625 0 L 4.015625 -55.28125 Z M 16.625 -55.28125 "/></g></g></g><g fill="#ffde59" fill-opacity="1"><g transform="translate(105.934343, 69.862556)"><g><path d="M 4.015625 -55.28125 L 20.03125 -55.28125 C 27.71875 -55.28125 34.285156 -52.65625 39.734375 -47.40625 C 45.191406 -42.164062 47.921875 -35.585938 47.921875 -27.671875 C 47.921875 -19.722656 45.203125 -13.125 39.765625 -7.875 C 34.335938 -2.625 27.757812 0 20.03125 0 L 4.015625 0 Z M 16.625 -11.265625 L 18.5625 -11.265625 C 23.164062 -11.265625 26.929688 -12.816406 29.859375 -15.921875 C 32.785156 -19.023438 34.269531 -22.921875 34.3125 -27.609375 C 34.3125 -32.296875 32.847656 -36.203125 29.921875 -39.328125 C 26.992188 -42.460938 23.207031 -44.03125 18.5625 -44.03125 L 16.625 -44.03125 Z M 16.625 -11.265625 "/></g></g></g><g fill="#ffde59" fill-opacity="1"><g transform="translate(153.986499, 69.862556)"><g><path d="M 1.546875 -27.671875 C 1.546875 -35.671875 4.269531 -42.441406 9.71875 -47.984375 C 15.164062 -53.523438 21.734375 -56.296875 29.421875 -56.296875 C 37.148438 -56.296875 43.71875 -53.535156 49.125 -48.015625 C 54.53125 -42.492188 57.234375 -35.710938 57.234375 -27.671875 C 57.234375 -19.585938 54.570312 -12.785156 49.25 -7.265625 C 43.9375 -1.753906 37.328125 1 29.421875 1 C 21.335938 1 14.671875 -1.734375 9.421875 -7.203125 C 4.171875 -12.671875 1.546875 -19.492188 1.546875 -27.671875 Z M 15.140625 -27.671875 C 15.140625 -24.773438 15.585938 -22.128906 16.484375 -19.734375 C 17.378906 -17.347656 18.941406 -15.328125 21.171875 -13.671875 C 23.410156 -12.015625 26.160156 -11.1875 29.421875 -11.1875 C 34.109375 -11.1875 37.644531 -12.796875 40.03125 -16.015625 C 42.425781 -19.234375 43.625 -23.117188 43.625 -27.671875 C 43.625 -32.191406 42.40625 -36.066406 39.96875 -39.296875 C 37.539062 -42.535156 34.023438 -44.15625 29.421875 -44.15625 C 24.859375 -44.15625 21.335938 -42.535156 18.859375 -39.296875 C 16.378906 -36.066406 15.140625 -32.191406 15.140625 -27.671875 Z M 15.140625 -27.671875 "/></g></g></g><g fill="#ffde59" fill-opacity="1"><g transform="translate(211.354241, 69.862556)"><g><path d="M 1.546875 -27.671875 C 1.546875 -35.671875 4.269531 -42.441406 9.71875 -47.984375 C 15.164062 -53.523438 21.734375 -56.296875 29.421875 -56.296875 C 37.148438 -56.296875 43.71875 -53.535156 49.125 -48.015625 C 54.53125 -42.492188 57.234375 -35.710938 57.234375 -27.671875 C 57.234375 -19.585938 54.570312 -12.785156 49.25 -7.265625 C 43.9375 -1.753906 37.328125 1 29.421875 1 C 21.335938 1 14.671875 -1.734375 9.421875 -7.203125 C 4.171875 -12.671875 1.546875 -19.492188 1.546875 -27.671875 Z M 15.140625 -27.671875 C 15.140625 -24.773438 15.585938 -22.128906 16.484375 -19.734375 C 17.378906 -17.347656 18.941406 -15.328125 21.171875 -13.671875 C 23.410156 -12.015625 26.160156 -11.1875 29.421875 -11.1875 C 34.109375 -11.1875 37.644531 -12.796875 40.03125 -16.015625 C 42.425781 -19.234375 43.625 -23.117188 43.625 -27.671875 C 43.625 -32.191406 42.40625 -36.066406 39.96875 -39.296875 C 37.539062 -42.535156 34.023438 -44.15625 29.421875 -44.15625 C 24.859375 -44.15625 21.335938 -42.535156 18.859375 -39.296875 C 16.378906 -36.066406 15.140625 -32.191406 15.140625 -27.671875 Z M 15.140625 -27.671875 "/></g></g></g><g fill="#ffde59" fill-opacity="1"><g transform="translate(34.626901, 133.500318)"><g><path d="M 4.015625 -55.28125 L 23.796875 -55.28125 C 29.109375 -55.28125 33.4375 -53.863281 36.78125 -51.03125 C 40.132812 -48.195312 41.8125 -44.144531 41.8125 -38.875 C 41.8125 -34.800781 40.796875 -31.390625 38.765625 -28.640625 C 36.734375 -25.898438 33.972656 -23.972656 30.484375 -22.859375 L 49.53125 0 L 33.515625 0 L 16.625 -21.84375 L 16.625 0 L 4.015625 0 Z M 16.625 -30.765625 L 18.09375 -30.765625 C 19.257812 -30.765625 20.242188 -30.785156 21.046875 -30.828125 C 21.847656 -30.867188 22.757812 -31.023438 23.78125 -31.296875 C 24.8125 -31.566406 25.640625 -31.945312 26.265625 -32.4375 C 26.890625 -32.925781 27.425781 -33.640625 27.875 -34.578125 C 28.320312 -35.515625 28.546875 -36.65625 28.546875 -38 C 28.546875 -39.34375 28.320312 -40.484375 27.875 -41.421875 C 27.425781 -42.359375 26.890625 -43.070312 26.265625 -43.5625 C 25.640625 -44.050781 24.8125 -44.425781 23.78125 -44.6875 C 22.757812 -44.957031 21.847656 -45.113281 21.046875 -45.15625 C 20.242188 -45.207031 19.257812 -45.234375 18.09375 -45.234375 L 16.625 -45.234375 Z M 16.625 -30.765625 "/></g></g></g><g fill="#ffde59" fill-opacity="1"><g transform="translate(81.204645, 133.500318)"><g><path d="M 46.515625 -55.28125 L 46.515625 -19.640625 C 46.515625 -12.847656 44.679688 -7.707031 41.015625 -4.21875 C 37.347656 -0.738281 31.984375 1 24.921875 1 C 17.867188 1 12.507812 -0.738281 8.84375 -4.21875 C 5.175781 -7.707031 3.34375 -12.847656 3.34375 -19.640625 L 3.34375 -55.28125 L 15.953125 -55.28125 L 15.953125 -23.328125 C 15.953125 -18.859375 16.65625 -15.75 18.0625 -14 C 19.46875 -12.257812 21.753906 -11.390625 24.921875 -11.390625 C 28.097656 -11.390625 30.390625 -12.257812 31.796875 -14 C 33.203125 -15.75 33.90625 -18.859375 33.90625 -23.328125 L 33.90625 -55.28125 Z M 46.515625 -55.28125 "/></g></g></g><g fill="#ffde59" fill-opacity="1"><g transform="translate(129.658912, 133.500318)"><g><path d="M 0.53125 -44.234375 L 0.53125 -55.28125 L 39.40625 -55.28125 L 39.40625 -44.234375 L 26.265625 -44.234375 L 26.265625 0 L 13.671875 0 L 13.671875 -44.234375 Z M 0.53125 -44.234375 "/></g></g></g><g fill="#ffde59" fill-opacity="1"><g transform="translate(168.194431, 133.500318)"><g><path d="M 32.09375 -55.28125 L 54.421875 0 L 40.875 0 L 36.796875 -11.0625 L 15.75 -11.0625 L 11.65625 0 L -1.875 0 L 20.4375 -55.28125 Z M 32.5 -22.109375 L 26.34375 -38.203125 L 26.203125 -38.203125 L 20.03125 -22.109375 Z M 32.5 -22.109375 "/></g></g></g><g fill="#ffde59" fill-opacity="1"><g transform="translate(219.32944, 133.500318)"><g><path d="M 24.390625 -56.296875 C 27.390625 -56.296875 30.316406 -55.859375 33.171875 -54.984375 C 36.035156 -54.109375 38.160156 -53.25 39.546875 -52.40625 L 41.546875 -51.0625 L 36.453125 -41.015625 C 36.054688 -41.285156 35.5 -41.628906 34.78125 -42.046875 C 34.0625 -42.472656 32.71875 -43.039062 30.75 -43.75 C 28.789062 -44.46875 26.960938 -44.828125 25.265625 -44.828125 C 23.160156 -44.828125 21.539062 -44.378906 20.40625 -43.484375 C 19.269531 -42.597656 18.703125 -41.394531 18.703125 -39.875 C 18.703125 -39.113281 18.96875 -38.410156 19.5 -37.765625 C 20.039062 -37.117188 20.957031 -36.425781 22.25 -35.6875 C 23.539062 -34.945312 24.675781 -34.351562 25.65625 -33.90625 C 26.644531 -33.457031 28.164062 -32.789062 30.21875 -31.90625 C 33.789062 -30.382812 36.835938 -28.316406 39.359375 -25.703125 C 41.890625 -23.085938 43.15625 -20.128906 43.15625 -16.828125 C 43.15625 -13.648438 42.582031 -10.875 41.4375 -8.5 C 40.300781 -6.132812 38.738281 -4.28125 36.75 -2.9375 C 34.769531 -1.601562 32.570312 -0.613281 30.15625 0.03125 C 27.738281 0.675781 25.125 1 22.3125 1 C 19.90625 1 17.539062 0.753906 15.21875 0.265625 C 12.894531 -0.222656 10.945312 -0.835938 9.375 -1.578125 C 7.8125 -2.316406 6.40625 -3.039062 5.15625 -3.75 C 3.90625 -4.46875 2.988281 -5.070312 2.40625 -5.5625 L 1.546875 -6.296875 L 7.84375 -16.890625 C 8.375 -16.441406 9.109375 -15.867188 10.046875 -15.171875 C 10.984375 -14.484375 12.644531 -13.554688 15.03125 -12.390625 C 17.425781 -11.234375 19.539062 -10.65625 21.375 -10.65625 C 26.695312 -10.65625 29.359375 -12.460938 29.359375 -16.078125 C 29.359375 -16.835938 29.164062 -17.539062 28.78125 -18.1875 C 28.40625 -18.84375 27.734375 -19.492188 26.765625 -20.140625 C 25.804688 -20.785156 24.957031 -21.296875 24.21875 -21.671875 C 23.488281 -22.054688 22.285156 -22.640625 20.609375 -23.421875 C 18.929688 -24.203125 17.691406 -24.796875 16.890625 -25.203125 C 13.535156 -26.847656 10.941406 -28.910156 9.109375 -31.390625 C 7.273438 -33.867188 6.359375 -36.539062 6.359375 -39.40625 C 6.359375 -44.363281 8.191406 -48.414062 11.859375 -51.5625 C 15.523438 -54.71875 19.703125 -56.296875 24.390625 -56.296875 Z M 24.390625 -56.296875 "/></g></g></g></svg>