<svg xmlns="http://www.w3.org/2000/svg" xmlns:xlink="http://www.w3.org/1999/xlink" width="800" zoomAndPan="magnify" viewBox="0 0 600 599.999999" height="800" preserveAspectRatio="xMidYMid meet" version="1.0"><defs><clipPath id="4693a599e4"><path d="M 24.207031 24.207031 L 575.457031 24.207031 L 575.457031 575.457031 L 24.207031 575.457031 Z M 24.207031 24.207031 " clip-rule="nonzero"/></clipPath></defs><rect x="-60" width="720" fill="#ffffff" y="-60" height="719.999999" fill-opacity="1"/><rect x="-60" width="720" fill="#ffffff" y="-60" height="719.999999" fill-opacity="1"/><rect x="-60" width="720" fill="#282828" y="-60" height="719.999999" fill-opacity="1"/><path fill="#f2c94c" d="M 246.371094 139.433594 L 350.960938 139.433594 C 356.71875 139.433594 361.386719 134.777344 361.386719 129.027344 C 361.386719 123.253906 356.71875 118.59375 350.960938 118.59375 L 246.371094 118.59375 C 240.617188 118.59375 235.945312 123.253906 235.945312 129.027344 C 235.945312 134.777344 240.617188 139.433594 246.371094 139.433594 " fill-opacity="1" fill-rule="nonzero"/><path fill="#f2c94c" d="M 215.597656 340.675781 C 195.40625 340.675781 179.03125 357.042969 179.03125 377.238281 C 179.03125 397.421875 195.40625 413.808594 215.597656 413.808594 C 235.804688 413.808594 252.171875 397.421875 252.171875 377.238281 C 252.171875 357.042969 235.804688 340.675781 215.597656 340.675781 " fill-opacity="1" fill-rule="nonzero"/><path fill="#f2c94c" d="M 381.734375 340.675781 C 361.527344 340.675781 345.167969 357.042969 345.167969 377.238281 C 345.167969 397.421875 361.527344 413.808594 381.734375 413.808594 C 401.925781 413.808594 418.304688 397.421875 418.304688 377.238281 C 418.304688 357.042969 401.925781 340.675781 381.734375 340.675781 " fill-opacity="1" fill-rule="nonzero"/><g clip-path="url(#4693a599e4)"><path fill="#f2c94c" d="M 425.738281 444.457031 L 425.738281 467.277344 C 425.738281 484.953125 411.414062 499.285156 393.746094 499.285156 L 392.859375 499.285156 C 375.191406 499.285156 360.867188 484.953125 360.867188 467.277344 L 360.867188 444.457031 L 236.464844 444.457031 L 236.464844 467.277344 C 236.464844 484.953125 222.148438 499.285156 204.488281 499.285156 L 203.585938 499.285156 C 185.925781 499.285156 171.601562 484.953125 171.601562 467.277344 L 171.601562 444.457031 L 135.164062 444.457031 L 143.160156 132.523438 C 143.160156 114.875 157.488281 100.550781 175.148438 100.550781 L 422.175781 100.550781 C 439.851562 100.550781 454.175781 114.875 454.175781 132.523438 L 462.167969 444.457031 Z M 299.90625 24.28125 C 147.6875 24.28125 24.277344 147.679688 24.277344 299.914062 C 24.277344 452.140625 147.6875 575.542969 299.90625 575.542969 C 452.140625 575.542969 575.542969 452.140625 575.542969 299.914062 C 575.542969 147.679688 452.140625 24.28125 299.90625 24.28125 " fill-opacity="1" fill-rule="nonzero"/></g><path fill="#f2c94c" d="M 392.203125 167.019531 L 205.136719 167.019531 C 191.75 167.019531 180.90625 177.867188 180.90625 191.242188 L 178.296875 320.546875 L 419.039062 320.546875 L 416.425781 191.242188 C 416.425781 177.867188 405.582031 167.019531 392.203125 167.019531 " fill-opacity="1" fill-rule="nonzero"/></svg>